# xmcd CD database file
#
# Track frame offsets:
#	150
#	13444
#	25435
#	39961
#	52364
#	71707
#	86397
#	98248
#	116250
#	133119
#	147067
#	169288
#
# Disc length: 2453 seconds
#
# Revision: 2
# Processed by: cddbd v1.4PL0 Copyright (c) Steve Scherf et al.
# Submitted via: jetAudio 5
#
DISCID=aa09930c
DTITLE=The Lowdown - Roger Wallace
DYEAR=1900
DGENRE=
TTITLE0=The Lowdown
TTITLE1=Blow Wind Blow
TTITLE2=There's A Song In There Somewhere
TTITLE3=I'll Catch You When You Fall
TTITLE4=What Did I Do (The Teardrop Song)
TTITLE5=You're A Heavenly Thing
TTITLE6=Stranger Pickin'
TTITLE7=The Wandering Fool
TTITLE8=Two Things
TTITLE9=So Long (Be Gone)
TTITLE10=Me and Abalina Jane
TTITLE11=Rose Marie
EXTD=Jim StingerBrad FordhamLisa PankratzEamon McloughlinMarty Muse
EXTT0=The Lowdown
EXTT1=The Lowdown
EXTT2=The Lowdown
EXTT3=The Lowdown
EXTT4=The Lowdown
EXTT5=The Lowdown
EXTT6=The Lowdown
EXTT7=The Lowdown
EXTT8=The Lowdown
EXTT9=The Lowdown
EXTT10=The Lowdown
EXTT11=The Lowdown
PLAYORDER=
